# xmcd CD database file
#
# Track frame offsets:
#	150
#	18647
#	38079
#	62170
#	83775
#	109206
#	128961
#	152883
#	172964
#
# Disc length: 2628 seconds
#
# Revision: 0
# Processed by: cddbd v1.5.1PL2 Copyright (c) Steve Scherf et al.
# Submitted via: CDex 1.51
#
DISCID=720a4209
DTITLE=Chevelle - 2006-03-23-Bobcat Arena-Charlotte, NC
DYEAR=2006
DGENRE=Blues
TTITLE0=Comfortable Liar
TTITLE1=The Red
TTITLE2=Another Know It All
TTITLE3=Closure
TTITLE4=Get Some
TTITLE5=Vitamin R
TTITLE6=Send The Pain Below
TTITLE7=Humanoid
TTITLE8=The Clincher
EXTD=YEAR: 2006
EXTT0=
EXTT1=
EXTT2=
EXTT3=
EXTT4=
EXTT5=
EXTT6=
EXTT7=
EXTT8=
PLAYORDER=
